<?xml version="1.0" standalone="no"?>
<!DOCTYPE svg PUBLIC "-//W3C//DTD SVG 20010904//EN"
 "http://www.w3.org/TR/2001/REC-SVG-20010904/DTD/svg10.dtd">
<svg version="1.0" xmlns="http://www.w3.org/2000/svg"
 width="128.000000pt" height="128.000000pt" viewBox="0 0 128.000000 128.000000"
 preserveAspectRatio="xMidYMid meet">
<metadata>
Created by potrace 1.11, written by Peter Selinger 2001-2013
</metadata>
<g transform="translate(0.000000,128.000000) scale(0.100000,-0.100000)"
fill="#000000" stroke="none">
<path d="M659 1266 c-2 -2 -38 -6 -79 -9 -70 -4 -189 -37 -217 -60 -7 -5 -13
-6 -13 -1 0 5 -4 4 -8 -1 -4 -6 -20 -17 -36 -25 -77 -39 -196 -179 -234 -275
-108 -272 -30 -591 183 -750 53 -39 145 -90 145 -79 0 4 6 2 13 -4 23 -19 147
-45 222 -46 56 -1 140 13 201 33 247 79 426 321 426 576 -1 98 -5 130 -32 209
-29 88 -81 177 -139 239 -84 91 -240 168 -366 183 -27 4 -53 8 -56 10 -3 2 -8
2 -10 0z"/>
</g>
</svg>
